<svg width="16" height="16" viewBox="0 0 16 16" fill="none" xmlns="http://www.w3.org/2000/svg">
<rect width="16" height="16" fill="#040B18"/>
<path fill-rule="evenodd" clip-rule="evenodd" d="M13.5361 7.98411V7.98425C12.6661 8.35396 11.512 8.79159 10.117 9.2026C9.55235 9.36896 8.94831 9.53094 8.30771 9.68228C6.46388 9.17188 4.51191 8.46655 2.51703 7.5C2.76222 4.67811 5.1306 2.46411 8.01609 2.46411C11.0647 2.46411 13.5361 4.9355 13.5361 7.98411ZM2.50373 7.69126C4.37307 8.59268 6.20423 9.26628 7.94408 9.76613C7.1413 9.94669 6.28428 10.1095 5.37829 10.2429C4.46893 9.90893 3.54243 9.52479 2.60559 9.08357C2.53378 8.72827 2.49609 8.36059 2.49609 7.98411C2.49609 7.88588 2.49866 7.78824 2.50373 7.69126ZM2.65471 9.30326C3.448 9.67318 4.23369 10.0025 5.00767 10.2955C4.39358 10.3792 3.75795 10.4491 3.10235 10.5017C2.90909 10.1253 2.75781 9.72373 2.65471 9.30326ZM7.91241 11.2498C7.08178 11.017 6.22962 10.7449 5.36182 10.4273C4.6672 10.5285 3.9441 10.6126 3.19485 10.6743C3.2495 10.772 3.30703 10.8679 3.36734 10.9619C4.00766 11.2383 4.64191 11.4888 5.26783 11.7156C6.20099 11.5881 7.08436 11.4288 7.91241 11.2498ZM4.88614 11.7655C4.4461 11.601 4.00218 11.4247 3.55515 11.236C3.71565 11.4558 3.89199 11.6633 4.0825 11.8567C4.35412 11.8291 4.62204 11.7986 4.88614 11.7655ZM5.25065 11.8995C6.14602 12.2228 7.02433 12.4979 7.87911 12.7314C7.2487 12.8622 6.58753 12.9812 5.89793 13.0831C5.28502 12.8282 4.72794 12.466 4.25014 12.02C4.58956 11.9841 4.92314 11.9437 5.25065 11.8995ZM8.26545 12.649C7.41073 12.425 6.5311 12.1595 5.63327 11.8456C6.5715 11.7083 7.45763 11.5396 8.2859 11.3522C9.1972 11.5966 10.0811 11.7939 10.9297 11.9521C10.8273 11.9834 10.7234 12.0145 10.6182 12.0455C9.8964 12.2582 9.11015 12.4637 8.26545 12.649ZM8.26398 12.8342C7.62245 12.974 6.94759 13.1021 6.24197 13.2128C6.79877 13.4017 7.39547 13.5041 8.01609 13.5041C8.64802 13.5041 9.25514 13.3979 9.82059 13.2024C9.31232 13.0944 8.79293 12.9722 8.26398 12.8342ZM10.1331 13.0836C9.64912 12.985 9.15458 12.8735 8.65088 12.7476C9.37251 12.5818 10.0494 12.4021 10.6778 12.2169C10.8966 12.1525 11.1095 12.0874 11.3163 12.0219C11.4477 12.0449 11.5782 12.067 11.7077 12.0881C11.2465 12.5032 10.7149 12.8418 10.1331 13.0836ZM5.73331 10.3711C6.60324 10.6797 7.45651 10.9429 8.28706 11.1666C9.02897 10.9976 9.72389 10.8137 10.3676 10.624C10.539 10.5735 10.7068 10.5226 10.8709 10.4714C10.0457 10.3099 9.18866 10.1112 8.30684 9.86822C7.50389 10.0566 6.64421 10.2283 5.73331 10.3711ZM8.66107 11.2651C9.57291 11.4999 10.4558 11.6875 11.3015 11.8363C11.637 11.7297 11.9562 11.6223 12.2586 11.5159C12.4481 11.2885 12.6197 11.0456 12.7711 10.7894C12.2776 10.7207 11.7687 10.6392 11.2462 10.5428C10.9833 10.6276 10.7101 10.7121 10.4271 10.7954C9.87507 10.9581 9.28551 11.1166 8.66107 11.2651ZM11.6879 11.9021C11.7502 11.9123 11.8122 11.9223 11.874 11.9321C11.9203 11.8869 11.9658 11.8409 12.0104 11.7941C11.9048 11.83 11.7973 11.8661 11.6879 11.9021ZM12.8671 10.6203C12.4574 10.5643 12.0368 10.4993 11.6066 10.4243C12.2025 10.2246 12.7411 10.0252 13.2177 9.83611C13.1209 10.108 13.0034 10.37 12.8671 10.6203ZM11.2315 10.3568C10.409 10.2041 9.55306 10.0146 8.67095 9.7807C9.19942 9.65067 9.70184 9.51389 10.1765 9.37404C11.5353 8.9737 12.6671 8.54812 13.5326 8.18361C13.515 8.67845 13.4323 9.1567 13.2927 9.61006C12.7041 9.84724 12.0139 10.1032 11.2315 10.3568Z" fill="#D9D9D9"/>
<path fill-rule="evenodd" clip-rule="evenodd" d="M13.5361 7.98411V7.98425C12.6661 8.35396 11.512 8.79159 10.117 9.2026C9.55235 9.36896 8.94831 9.53094 8.30771 9.68228C6.46388 9.17188 4.51191 8.46655 2.51703 7.5C2.76222 4.67811 5.1306 2.46411 8.01609 2.46411C11.0647 2.46411 13.5361 4.9355 13.5361 7.98411ZM2.50373 7.69126C4.37307 8.59268 6.20423 9.26628 7.94408 9.76613C7.1413 9.94669 6.28428 10.1095 5.37829 10.2429C4.46893 9.90893 3.54243 9.52479 2.60559 9.08357C2.53378 8.72827 2.49609 8.36059 2.49609 7.98411C2.49609 7.88588 2.49866 7.78824 2.50373 7.69126ZM2.65471 9.30326C3.448 9.67318 4.23369 10.0025 5.00767 10.2955C4.39358 10.3792 3.75795 10.4491 3.10235 10.5017C2.90909 10.1253 2.75781 9.72373 2.65471 9.30326ZM7.91241 11.2498C7.08178 11.017 6.22962 10.7449 5.36182 10.4273C4.6672 10.5285 3.9441 10.6126 3.19485 10.6743C3.2495 10.772 3.30703 10.8679 3.36734 10.9619C4.00766 11.2383 4.64191 11.4888 5.26783 11.7156C6.20099 11.5881 7.08436 11.4288 7.91241 11.2498ZM4.88614 11.7655C4.4461 11.601 4.00218 11.4247 3.55515 11.236C3.71565 11.4558 3.89199 11.6633 4.0825 11.8567C4.35412 11.8291 4.62204 11.7986 4.88614 11.7655ZM5.25065 11.8995C6.14602 12.2228 7.02433 12.4979 7.87911 12.7314C7.2487 12.8622 6.58753 12.9812 5.89793 13.0831C5.28502 12.8282 4.72794 12.466 4.25014 12.02C4.58956 11.9841 4.92314 11.9437 5.25065 11.8995ZM8.26545 12.649C7.41073 12.425 6.5311 12.1595 5.63327 11.8456C6.5715 11.7083 7.45763 11.5396 8.2859 11.3522C9.1972 11.5966 10.0811 11.7939 10.9297 11.9521C10.8273 11.9834 10.7234 12.0145 10.6182 12.0455C9.8964 12.2582 9.11015 12.4637 8.26545 12.649ZM8.26398 12.8342C7.62245 12.974 6.94759 13.1021 6.24197 13.2128C6.79877 13.4017 7.39547 13.5041 8.01609 13.5041C8.64802 13.5041 9.25514 13.3979 9.82059 13.2024C9.31232 13.0944 8.79293 12.9722 8.26398 12.8342ZM10.1331 13.0836C9.64912 12.985 9.15458 12.8735 8.65088 12.7476C9.37251 12.5818 10.0494 12.4021 10.6778 12.2169C10.8966 12.1525 11.1095 12.0874 11.3163 12.0219C11.4477 12.0449 11.5782 12.067 11.7077 12.0881C11.2465 12.5032 10.7149 12.8418 10.1331 13.0836ZM5.73331 10.3711C6.60324 10.6797 7.45651 10.9429 8.28706 11.1666C9.02897 10.9976 9.72389 10.8137 10.3676 10.624C10.539 10.5735 10.7068 10.5226 10.8709 10.4714C10.0457 10.3099 9.18866 10.1112 8.30684 9.86822C7.50389 10.0566 6.64421 10.2283 5.73331 10.3711ZM8.66107 11.2651C9.57291 11.4999 10.4558 11.6875 11.3015 11.8363C11.637 11.7297 11.9562 11.6223 12.2586 11.5159C12.4481 11.2885 12.6197 11.0456 12.7711 10.7894C12.2776 10.7207 11.7687 10.6392 11.2462 10.5428C10.9833 10.6276 10.7101 10.7121 10.4271 10.7954C9.87507 10.9581 9.28551 11.1166 8.66107 11.2651ZM11.6879 11.9021C11.7502 11.9123 11.8122 11.9223 11.874 11.9321C11.9203 11.8869 11.9658 11.8409 12.0104 11.7941C11.9048 11.83 11.7973 11.8661 11.6879 11.9021ZM12.8671 10.6203C12.4574 10.5643 12.0368 10.4993 11.6066 10.4243C12.2025 10.2246 12.7411 10.0252 13.2177 9.83611C13.1209 10.108 13.0034 10.37 12.8671 10.6203ZM11.2315 10.3568C10.409 10.2041 9.55306 10.0146 8.67095 9.7807C9.19942 9.65067 9.70184 9.51389 10.1765 9.37404C11.5353 8.9737 12.6671 8.54812 13.5326 8.18361C13.515 8.67845 13.4323 9.1567 13.2927 9.61006C12.7041 9.84724 12.0139 10.1032 11.2315 10.3568Z" fill="url(#paint0_linear_447_1162)"/>
<defs>
<linearGradient id="paint0_linear_447_1162" x1="11.8923" y1="0.576758" x2="6.10845" y2="13.0576" gradientUnits="userSpaceOnUse">
<stop stop-color="#00FFA3"/>
<stop offset="0.55898" stop-color="#5D3FD3"/>
<stop offset="1" stop-color="#0A1F44"/>
</linearGradient>
</defs>
</svg>
