<svg width="128" height="128" viewBox="0 0 128 128" fill="none" xmlns="http://www.w3.org/2000/svg">
<rect width="128" height="128" fill="#040B18"/>
<path fill-rule="evenodd" clip-rule="evenodd" d="M108.289 63.8729V63.876C101.329 66.8336 92.0962 70.3345 80.9364 73.6225C76.4198 74.9532 71.588 76.2489 66.4637 77.4596C51.7124 73.3763 36.0959 67.7335 20.1362 60.0006C22.0974 37.4252 41.0446 19.7129 64.1287 19.7129C88.5176 19.7129 108.289 39.484 108.289 63.8729ZM20.0298 61.5307C34.9853 68.7425 49.6353 74.1315 63.5546 78.1304C57.1325 79.5749 50.2764 80.8772 43.0286 81.9448C35.753 79.2727 28.3403 76.1992 20.8449 72.6692C20.2703 69.8265 19.9688 66.8849 19.9688 63.8729C19.9688 63.0872 19.9893 62.3063 20.0298 61.5307ZM21.2378 74.4266C27.5849 77.3864 33.8712 80.0215 40.0637 82.3652C35.1505 83.0349 30.065 83.5942 24.8197 84.0155C23.2732 81.0036 22.0628 77.7908 21.2378 74.4266ZM63.3034 90.0001C56.6578 88.1381 49.84 85.9605 42.8969 83.4197C37.3395 84.2298 31.5542 84.9022 25.5597 85.3958C25.9968 86.1774 26.4569 86.9443 26.9392 87.6957C32.0631 89.9077 37.1382 91.9119 42.1468 93.7266C49.6121 92.7069 56.6791 91.4324 63.3034 90.0001ZM39.0933 94.1265C35.5718 92.8099 32.0193 91.3993 28.4418 89.8887C29.7263 91.6476 31.1376 93.308 32.6624 94.8564C34.8359 94.6353 36.9799 94.3913 39.0933 94.1265ZM42.0093 95.198C49.1725 97.7844 56.1991 99.9852 63.0373 101.853C57.9942 102.9 52.705 103.851 47.1884 104.667C42.2842 102.628 37.8268 99.7306 34.0037 96.1622C36.7196 95.8749 39.3888 95.5521 42.0093 95.198ZM66.128 101.194C59.2902 99.4019 52.2531 97.2779 45.0703 94.7672C52.5762 93.6684 59.6653 92.3186 66.2914 90.8194C73.5819 92.7747 80.6532 94.3528 87.4419 95.6184C86.6213 95.8688 85.7895 96.1184 84.9468 96.3667C79.1731 98.0677 72.8843 99.7116 66.128 101.194ZM66.1163 102.676C60.9844 103.794 55.5859 104.818 49.9414 105.705C54.3942 107.214 59.1659 108.033 64.1287 108.033C69.1836 108.033 74.0402 107.184 78.5634 105.62C74.4991 104.756 70.3459 103.779 66.1163 102.676ZM81.0635 104.669C77.1936 103.881 73.2391 102.989 69.2115 101.983C74.9832 100.656 80.3975 99.2188 85.4231 97.7381C87.1746 97.2221 88.879 96.7008 90.535 96.1771C91.5843 96.3606 92.6264 96.5366 93.6611 96.7055C89.9713 100.027 85.7186 102.735 81.0635 104.669ZM45.8688 82.9701C52.8289 85.4396 59.6557 87.5447 66.3007 89.3348C72.2347 87.9829 77.793 86.5115 82.9416 84.9946C84.3141 84.5902 85.6575 84.1826 86.971 83.7732C80.369 82.4808 73.512 80.8913 66.4568 78.9471C60.0332 80.4545 53.1559 81.8278 45.8688 82.9701ZM69.2927 90.1229C76.5876 92.0007 83.6507 93.5015 90.4163 94.6919C93.0973 93.8397 95.6488 92.9819 98.0652 92.131C99.5824 90.3109 100.956 88.3668 102.168 86.3162C98.2215 85.767 94.1516 85.1146 89.9736 84.344C87.8691 85.0226 85.6829 85.6987 83.4179 86.3661C79.0025 87.667 74.287 88.9347 69.2927 90.1229ZM93.5077 95.2179C94.004 95.2995 94.4986 95.3794 94.9914 95.4577C95.3605 95.0971 95.7232 94.7301 96.0794 94.3568C95.237 94.6437 94.3797 94.9309 93.5077 95.2179ZM102.936 84.9635C99.6599 84.5153 96.2971 83.9958 92.8567 83.3961C97.6221 81.799 101.929 80.2041 105.741 78.6923C104.966 80.8663 104.027 82.9618 102.936 84.9635ZM89.856 82.856C83.2754 81.6346 76.4271 80.118 69.3696 78.247C73.5969 77.2068 77.6157 76.1127 81.4127 74.994C92.2827 71.7914 101.337 68.3869 108.26 65.4709C108.12 69.4301 107.458 73.2566 106.341 76.8838C101.633 78.7807 96.1126 80.8277 89.856 82.856Z" fill="#D9D9D9"/>
<path fill-rule="evenodd" clip-rule="evenodd" d="M108.289 63.8729V63.876C101.329 66.8336 92.0962 70.3345 80.9364 73.6225C76.4198 74.9532 71.588 76.2489 66.4637 77.4596C51.7124 73.3763 36.0959 67.7335 20.1362 60.0006C22.0974 37.4252 41.0446 19.7129 64.1287 19.7129C88.5176 19.7129 108.289 39.484 108.289 63.8729ZM20.0298 61.5307C34.9853 68.7425 49.6353 74.1315 63.5546 78.1304C57.1325 79.5749 50.2764 80.8772 43.0286 81.9448C35.753 79.2727 28.3403 76.1992 20.8449 72.6692C20.2703 69.8265 19.9688 66.8849 19.9688 63.8729C19.9688 63.0872 19.9893 62.3063 20.0298 61.5307ZM21.2378 74.4266C27.5849 77.3864 33.8712 80.0215 40.0637 82.3652C35.1505 83.0349 30.065 83.5942 24.8197 84.0155C23.2732 81.0036 22.0628 77.7908 21.2378 74.4266ZM63.3034 90.0001C56.6578 88.1381 49.84 85.9605 42.8969 83.4197C37.3395 84.2298 31.5542 84.9022 25.5597 85.3958C25.9968 86.1774 26.4569 86.9443 26.9392 87.6957C32.0631 89.9077 37.1382 91.9119 42.1468 93.7266C49.6121 92.7069 56.6791 91.4324 63.3034 90.0001ZM39.0933 94.1265C35.5718 92.8099 32.0193 91.3993 28.4418 89.8887C29.7263 91.6476 31.1376 93.308 32.6624 94.8564C34.8359 94.6353 36.9799 94.3913 39.0933 94.1265ZM42.0093 95.198C49.1725 97.7844 56.1991 99.9852 63.0373 101.853C57.9942 102.9 52.705 103.851 47.1884 104.667C42.2842 102.628 37.8268 99.7306 34.0037 96.1622C36.7196 95.8749 39.3888 95.5521 42.0093 95.198ZM66.128 101.194C59.2902 99.4019 52.2531 97.2779 45.0703 94.7672C52.5762 93.6684 59.6653 92.3186 66.2914 90.8194C73.5819 92.7747 80.6532 94.3528 87.4419 95.6184C86.6213 95.8688 85.7895 96.1184 84.9468 96.3667C79.1731 98.0677 72.8843 99.7116 66.128 101.194ZM66.1163 102.676C60.9844 103.794 55.5859 104.818 49.9414 105.705C54.3942 107.214 59.1659 108.033 64.1287 108.033C69.1836 108.033 74.0402 107.184 78.5634 105.62C74.4991 104.756 70.3459 103.779 66.1163 102.676ZM81.0635 104.669C77.1936 103.881 73.2391 102.989 69.2115 101.983C74.9832 100.656 80.3975 99.2188 85.4231 97.7381C87.1746 97.2221 88.879 96.7008 90.535 96.1771C91.5843 96.3606 92.6264 96.5366 93.6611 96.7055C89.9713 100.027 85.7186 102.735 81.0635 104.669ZM45.8688 82.9701C52.8289 85.4396 59.6557 87.5447 66.3007 89.3348C72.2347 87.9829 77.793 86.5115 82.9416 84.9946C84.3141 84.5902 85.6575 84.1826 86.971 83.7732C80.369 82.4808 73.512 80.8913 66.4568 78.9471C60.0332 80.4545 53.1559 81.8278 45.8688 82.9701ZM69.2927 90.1229C76.5876 92.0007 83.6507 93.5015 90.4163 94.6919C93.0973 93.8397 95.6488 92.9819 98.0652 92.131C99.5824 90.3109 100.956 88.3668 102.168 86.3162C98.2215 85.767 94.1516 85.1146 89.9736 84.344C87.8691 85.0226 85.6829 85.6987 83.4179 86.3661C79.0025 87.667 74.287 88.9347 69.2927 90.1229ZM93.5077 95.2179C94.004 95.2995 94.4986 95.3794 94.9914 95.4577C95.3605 95.0971 95.7232 94.7301 96.0794 94.3568C95.237 94.6437 94.3797 94.9309 93.5077 95.2179ZM102.936 84.9635C99.6599 84.5153 96.2971 83.9958 92.8567 83.3961C97.6221 81.799 101.929 80.2041 105.741 78.6923C104.966 80.8663 104.027 82.9618 102.936 84.9635ZM89.856 82.856C83.2754 81.6346 76.4271 80.118 69.3696 78.247C73.5969 77.2068 77.6157 76.1127 81.4127 74.994C92.2827 71.7914 101.337 68.3869 108.26 65.4709C108.12 69.4301 107.458 73.2566 106.341 76.8838C101.633 78.7807 96.1126 80.8277 89.856 82.856Z" fill="url(#paint0_linear_449_1182)"/>
<defs>
<linearGradient id="paint0_linear_449_1182" x1="95.1382" y1="4.61407" x2="48.8676" y2="104.461" gradientUnits="userSpaceOnUse">
<stop stop-color="#00FFA3"/>
<stop offset="0.55898" stop-color="#5D3FD3"/>
<stop offset="1" stop-color="#0A1F44"/>
</linearGradient>
</defs>
</svg>
